# This file uses centimeters as units for non-parametric coordinates.

mtllib pilier-stuc.mtl
g default
v -16.088408 0.000000 -17.115456
v 16.123564 0.000000 -17.116602
v 16.830450 0.000000 -16.840189
v 17.108292 0.000000 -16.082821
v 17.117813 0.000000 16.112028
v 16.744629 0.000000 16.744793
v 16.105236 0.000000 17.111958
v -16.104422 0.000000 17.111958
v -16.827486 0.000000 16.829866
v -17.116999 0.000000 16.128538
v -17.123508 0.000000 -16.117655
v -16.884703 0.000000 -16.854780
v -16.088408 170.445953 -17.115456
v 16.123564 170.445953 -17.116602
v 16.830450 170.445953 -16.840189
v 17.108292 170.445953 -16.082821
v 17.117813 170.445953 16.112028
v 16.744629 170.445953 16.744793
v 16.105236 170.445953 17.111958
v -16.104422 170.445953 17.111958
v -16.827486 170.445953 16.829866
v -17.116999 170.445953 16.128538
v -17.123508 170.445953 -16.117655
v -16.884703 170.445953 -16.854780
v -17.454390 170.921722 -18.568714
v 17.495600 170.921722 -18.569956
v 18.262571 170.921722 -18.270048
v 18.564030 170.921722 -17.448307
v 18.574360 170.921722 17.483107
v 18.169456 170.921722 18.169659
v 17.475712 170.921722 18.568031
v -17.471766 170.921722 18.568031
v -18.256292 170.921722 18.261961
v -18.570414 170.921722 17.501020
v -18.577477 170.921722 -17.486101
v -18.318373 170.921722 -18.285879
v -17.744997 171.397491 -18.877888
v 17.787493 171.397491 -18.879148
v 18.567247 171.397491 -18.574244
v 18.873730 171.397491 -17.738808
v 18.884232 171.397491 17.774797
v 18.472580 171.397491 18.472790
v 17.767273 171.397491 18.877804
v -17.762659 171.397491 18.877804
v -18.560263 171.397491 18.566633
v -18.879622 171.397491 17.793009
v -18.886799 171.397491 -17.777231
v -18.623377 171.397491 -18.590338
v -17.744997 175.857910 -18.877888
v 17.787493 175.857910 -18.879148
v 18.567247 175.857910 -18.574244
v 18.873730 175.857910 -17.738808
v 18.884232 175.857910 17.774797
v 18.472580 175.857910 18.472790
v 17.767273 175.857910 18.877804
v -17.762659 175.857910 18.877804
v -18.560263 175.857910 18.566633
v -18.879622 175.857910 17.793009
v -18.886799 175.857910 -17.777231
v -18.623377 175.857910 -18.590338
v -17.449549 176.318054 -18.563560
v 17.490736 176.318054 -18.564802
v 18.257494 176.318054 -18.264978
v 18.558868 176.318054 -17.443466
v 18.569195 176.318054 17.478247
v 18.164402 176.318054 18.164604
v 17.470852 176.318054 18.562870
v -17.466917 176.318054 18.562870
v -18.251226 176.318054 18.256884
v -18.565262 176.318054 17.496153
v -18.572319 176.318054 -17.481249
v -18.313288 176.318054 -18.280806
v -17.449549 176.848999 -18.563560
v 17.490736 176.848999 -18.564802
v 18.257494 176.848999 -18.264978
v 18.558868 176.848999 -17.443466
v 18.569195 176.848999 17.478247
v 18.164402 176.848999 18.164604
v 17.470852 176.848999 18.562870
v -17.466917 176.848999 18.562870
v -18.251226 176.848999 18.256884
v -18.565262 176.848999 17.496153
v -18.572319 176.848999 -17.481249
v -18.313288 176.848999 -18.280806
v -18.030600 177.450745 -19.181736
v 18.074362 177.450745 -19.183020
v 18.866678 177.450745 -18.873201
v 19.178097 177.450745 -18.024303
v 19.188766 177.450745 18.061464
v 18.770481 177.450745 18.770702
v 18.053814 177.450745 19.182243
v -18.048548 177.450745 19.182243
v -18.858999 177.450745 18.866056
v -19.183502 177.450745 18.079969
v -19.190796 177.450745 -18.063345
v -18.923128 177.450745 -18.889555
v -18.030600 179.893066 -19.181736
v 18.074362 179.893066 -19.183020
v 18.866678 179.893066 -18.873201
v 19.178097 179.893066 -18.024303
v 19.188766 179.893066 18.061464
v 18.770481 179.893066 18.770702
v 18.053814 179.893066 19.182243
v -18.048548 179.893066 19.182243
v -18.858999 179.893066 18.866056
v -19.183502 179.893066 18.079969
v -19.190796 179.893066 -18.063345
v -18.923128 179.893066 -18.889555
v -23.134161 183.407288 -24.611374
v 23.200537 183.407288 -24.613024
v 24.217344 183.407288 -24.215422
v 24.616997 183.407288 -23.126003
v 24.630692 183.407288 23.184065
v 24.093891 183.407288 24.094254
v 23.174168 183.407288 24.622398
v -23.157194 183.407288 24.622398
v -24.197275 183.407288 24.216623
v -24.613720 183.407288 23.207811
v -24.623081 183.407288 -23.176107
v -24.279573 183.407288 -24.236410
v -23.519430 183.969574 -25.021259
v 23.587511 183.969574 -25.022936
v 24.621267 183.969574 -24.618708
v 25.027580 183.969574 -23.511131
v 25.041504 183.969574 23.570772
v 24.495754 183.969574 24.496128
v 23.560703 183.969574 25.033077
v -23.542845 183.969574 25.033077
v -24.600264 183.969574 24.620539
v -25.023647 183.969574 23.594912
v -25.033165 183.969574 -23.562071
v -24.683931 183.969574 -24.640043
v -23.519430 190.669983 -25.021255
v 23.587511 190.669983 -25.022932
v 24.621267 190.669983 -24.618704
v 25.027580 190.669983 -23.511127
v 25.041504 190.669983 23.570776
v 24.495754 190.669983 24.496132
v 23.560703 190.669983 25.033081
v -23.542845 190.669983 25.033081
v -24.600264 190.669983 24.620543
v -25.023647 190.669983 23.594915
v -25.033165 190.669983 -23.562067
v -24.683931 190.669983 -24.640039
v -23.127741 191.325958 -24.604538
v 23.194086 191.325958 -24.606188
v 24.210611 191.325958 -24.208696
v 24.610153 191.325958 -23.119579
v 24.623844 191.325958 23.177626
v 24.087193 191.325958 24.087559
v 23.167725 191.325958 24.615559
v -23.150766 191.325958 24.615559
v -24.190561 191.325958 24.209894
v -24.606888 191.325958 23.201361
v -24.616245 191.325958 -23.169672
v -24.272833 191.325958 -24.229677
v -0.082639 207.538116 -0.066243
v 0.047484 207.538116 -0.066247
v 0.050340 207.538116 -0.065131
v 0.051462 207.538116 -0.062071
v 0.051501 207.538116 0.067983
v 0.049993 207.538116 0.070540
v 0.047410 207.538116 0.072023
v -0.082704 207.538116 0.072023
v -0.085625 207.538116 0.070884
v -0.086794 207.538116 0.068052
v -0.086822 207.538116 -0.062212
v -0.085856 207.538116 -0.065191
vt 0.846283 0.307847
vt 0.846278 0.307860
vt 0.846266 0.307864
vt 0.845740 0.307864
vt 0.845729 0.307859
vt 0.845724 0.307848
vt 0.845724 0.307322
vt 0.845730 0.307312
vt 0.845740 0.307305
vt 0.846266 0.307306
vt 0.846278 0.307310
vt 0.846283 0.307322
vt 0.943902 0.405575
vt 0.945416 0.400948
vt 0.939619 0.406962
vt 0.746569 0.401042
vt 0.748208 0.405242
vt 0.746569 0.213917
vt 0.752378 0.208034
vt 0.748702 0.210202
vt 0.943817 0.209704
vt 0.939417 0.208090
vt 0.945423 0.213810
vt 0.134878 0.001992
vt 0.134878 0.690586
vt 0.004743 0.690586
vt 0.004743 0.001992
vt 0.138095 0.001992
vt 0.138095 0.690586
vt 0.001887 0.690586
vt 0.001887 0.001992
vt 0.279916 0.001992
vt 0.279916 0.690586
vt 0.276856 0.690586
vt 0.276856 0.001992
vt 0.146790 0.690586
vt 0.146790 0.001992
vt 0.144234 0.690586
vt 0.144234 0.001992
vt 0.422026 0.001992
vt 0.422026 0.690586
vt 0.419443 0.690586
vt 0.419443 0.001992
vt 0.289317 0.690586
vt 0.289317 0.001992
vt 0.286396 0.690586
vt 0.286396 0.001992
vt 0.564643 0.001992
vt 0.564643 0.690586
vt 0.561809 0.690586
vt 0.561809 0.001992
vt 0.431536 0.690586
vt 0.431536 0.001992
vt 0.428558 0.690586
vt 0.428558 0.001992
vt 0.086220 0.835655
vt 0.080349 0.841174
vt 0.080344 0.699977
vt 0.086216 0.705520
vt 0.087273 0.838872
vt 0.081492 0.844664
vt 0.081556 0.696879
vt 0.087332 0.702664
vt 0.090251 0.839837
vt 0.084723 0.845711
vt 0.084875 0.695661
vt 0.090392 0.701542
vt 0.220524 0.839811
vt 0.226069 0.845682
vt 0.225997 0.695619
vt 0.220458 0.701504
vt 0.223358 0.838641
vt 0.229143 0.844413
vt 0.228770 0.697255
vt 0.223014 0.703011
vt 0.224497 0.835720
vt 0.230380 0.841244
vt 0.227175 0.694367
vt 0.229995 0.696030
vt 0.230380 0.700058
vt 0.224497 0.705594
vt 0.231631 0.698880
vt 0.074532 0.839893
vt 0.072610 0.841067
vt 0.072610 0.697518
vt 0.074532 0.698697
vt 0.074532 0.843383
vt 0.072610 0.844616
vt 0.054590 0.841067
vt 0.054590 0.697518
vt 0.072610 0.694367
vt 0.074532 0.695598
vt 0.054590 0.844616
vt 0.052731 0.839874
vt 0.052731 0.698716
vt 0.054590 0.694367
vt 0.052731 0.843363
vt 0.050586 0.839874
vt 0.050586 0.698716
vt 0.052731 0.695619
vt 0.050586 0.843363
vt 0.050586 0.695619
vt 0.001887 0.849490
vt 0.003809 0.848261
vt 0.003809 0.851636
vt 0.001887 0.852810
vt 0.021829 0.848261
vt 0.021829 0.851636
vt 0.003809 0.995109
vt 0.001887 0.993931
vt 0.023688 0.849510
vt 0.023688 0.852829
vt 0.021829 0.995109
vt 0.025833 0.849510
vt 0.025833 0.852829
vt 0.023688 0.993911
vt 0.021829 0.997929
vt 0.003809 0.997929
vt 0.025833 0.993911
vt 0.025833 0.996684
vt 0.023688 0.996684
vt 0.033458 0.852424
vt 0.035380 0.851246
vt 0.035380 0.994786
vt 0.033458 0.993611
vt 0.053400 0.851246
vt 0.053400 0.994786
vt 0.035380 0.998008
vt 0.033458 0.996780
vt 0.035380 0.848397
vt 0.053400 0.848397
vt 0.055259 0.852444
vt 0.055259 0.993591
vt 0.053400 0.998008
vt 0.057404 0.852444
vt 0.057404 0.993591
vt 0.055259 0.996759
vt 0.055259 0.849642
vt 0.057404 0.849642
vt 0.057404 0.996759
vt 0.044774 0.843249
vt 0.042852 0.844480
vt 0.042852 0.841354
vt 0.044774 0.840175
vt 0.024832 0.844480
vt 0.024832 0.841354
vt 0.042852 0.697652
vt 0.044774 0.698828
vt 0.022973 0.843228
vt 0.022973 0.840155
vt 0.024832 0.697652
vt 0.042852 0.694367
vt 0.044774 0.695597
vt 0.020828 0.843228
vt 0.020828 0.840155
vt 0.022973 0.698848
vt 0.024832 0.694367
vt 0.020828 0.698848
vt 0.022973 0.695618
vt 0.020828 0.695618
vt 0.172691 0.849492
vt 0.173889 0.850765
vt 0.171116 0.852400
vt 0.169871 0.851155
vt 0.169507 0.855202
vt 0.168235 0.854004
vt 0.302662 0.842385
vt 0.300164 0.844732
vt 0.300159 0.698869
vt 0.302657 0.701227
vt 0.303804 0.845874
vt 0.301345 0.848338
vt 0.301411 0.695669
vt 0.303868 0.698130
vt 0.307034 0.846920
vt 0.304683 0.849419
vt 0.304840 0.694410
vt 0.307187 0.696912
vt 0.448341 0.846892
vt 0.450700 0.849390
vt 0.450625 0.694367
vt 0.448269 0.696870
vt 0.451415 0.845623
vt 0.453876 0.848079
vt 0.453490 0.696057
vt 0.451042 0.698506
vt 0.452651 0.842455
vt 0.455153 0.844804
vt 0.455153 0.698952
vt 0.452651 0.701308
vt 0.294347 0.843431
vt 0.284480 0.843431
vt 0.284480 0.697568
vt 0.294347 0.697568
vt 0.294347 0.847036
vt 0.284480 0.847036
vt 0.284480 0.694367
vt 0.294347 0.694367
vt 0.253122 0.694367
vt 0.262989 0.694367
vt 0.262989 0.697797
vt 0.253122 0.697797
vt 0.262989 0.843582
vt 0.253122 0.843582
vt 0.262989 0.846447
vt 0.253122 0.846447
vt 0.237443 0.694367
vt 0.247310 0.694367
vt 0.247310 0.697263
vt 0.237443 0.697263
vt 0.247310 0.843115
vt 0.237443 0.843115
vt 0.247310 0.846389
vt 0.237443 0.846389
vt 0.278668 0.846898
vt 0.268801 0.846898
vt 0.268801 0.843722
vt 0.278668 0.843722
vt 0.268801 0.697705
vt 0.278668 0.697705
vt 0.268801 0.694367
vt 0.278668 0.694367
vt 0.592662 0.176001
vt 0.570727 0.196620
vt 0.570720 0.009430
vt 0.592657 0.030139
vt 0.593843 0.179607
vt 0.572242 0.201247
vt 0.572327 0.005322
vt 0.593909 0.026938
vt 0.597181 0.180689
vt 0.576525 0.202635
vt 0.576728 0.003707
vt 0.597338 0.025680
vt 0.743198 0.180659
vt 0.763914 0.202597
vt 0.763818 0.003652
vt 0.743123 0.025637
vt 0.746374 0.179348
vt 0.767990 0.200915
vt 0.767496 0.005820
vt 0.745989 0.027327
vt 0.747651 0.176074
vt 0.769629 0.196713
vt 0.769622 0.202543
vt 0.765478 0.204253
vt 0.765381 0.001992
vt 0.769119 0.004197
vt 0.769629 0.009536
vt 0.747651 0.030222
vt 0.771288 0.007974
vt 0.809493 0.194922
vt 0.807221 0.196478
vt 0.807221 0.006168
vt 0.809493 0.007732
vt 0.809493 0.199549
vt 0.807221 0.201183
vt 0.780152 0.196478
vt 0.780152 0.006168
vt 0.807221 0.001992
vt 0.809493 0.003624
vt 0.780152 0.201183
vt 0.777502 0.194896
vt 0.777502 0.007758
vt 0.780152 0.001992
vt 0.777502 0.199522
vt 0.777502 0.003651
vt 0.708766 0.209663
vt 0.711038 0.208034
vt 0.711038 0.212509
vt 0.708766 0.214065
vt 0.738107 0.208034
vt 0.738107 0.212509
vt 0.711038 0.402717
vt 0.708766 0.401155
vt 0.740757 0.209691
vt 0.740757 0.214091
vt 0.738107 0.402717
vt 0.740757 0.401129
vt 0.738107 0.406456
vt 0.711038 0.406456
vt 0.740757 0.404805
vt 0.670963 0.213373
vt 0.673235 0.211812
vt 0.673235 0.402108
vt 0.670963 0.400550
vt 0.700304 0.211812
vt 0.700304 0.402108
vt 0.673235 0.406380
vt 0.670963 0.404752
vt 0.673235 0.208034
vt 0.700304 0.208034
vt 0.702954 0.213399
vt 0.702954 0.400524
vt 0.700304 0.406380
vt 0.702954 0.209685
vt 0.702954 0.404725
vt 0.848264 0.195295
vt 0.845992 0.196859
vt 0.845992 0.006347
vt 0.848264 0.007906
vt 0.818923 0.196859
vt 0.818923 0.006347
vt 0.845992 0.001992
vt 0.848264 0.003623
vt 0.845992 0.201003
vt 0.818923 0.201003
vt 0.816273 0.195269
vt 0.816273 0.007932
vt 0.818923 0.001992
vt 0.816273 0.199344
vt 0.816273 0.003650
vt 0.560181 0.881406
vt 0.460965 0.788255
vt 0.460965 0.787729
vt 0.560236 0.694367
vt 0.161964 0.851625
vt 0.064855 0.948653
vt 0.064845 0.948647
vt 0.158250 0.849492
vt 0.567768 0.694367
vt 0.665151 0.791888
vt 0.665146 0.791899
vt 0.566086 0.698442
vt 0.665146 0.792426
vt 0.566048 0.885779
vn -0.002335 0.835361 -0.549697
vn -0.297315 0.903638 -0.308288
vn -0.550049 0.835130 -0.002004
vn -0.549657 0.835386 0.002820
vn -0.298369 0.903285 0.308304
vn -0.002611 0.835534 0.549432
vn 0.003757 0.836028 0.548675
vn 0.302131 0.902664 0.306456
vn 0.548272 0.836292 0.003689
vn 0.549143 0.835724 -0.002694
vn 0.311034 0.903453 -0.295010
vn 0.002535 0.835469 -0.549532
vn -0.007932 0.000000 -0.999969
vn -0.007915 -0.012849 -0.999886
vn 0.008344 -0.012891 -0.999882
vn 0.008362 0.000000 -0.999965
vn 0.723995 -0.015557 -0.689630
vn 0.724077 0.000000 -0.689719
vn 0.999879 -0.012884 -0.008703
vn 0.999962 0.000000 -0.008720
vn 0.999855 -0.012969 0.011057
vn 0.999939 0.000000 0.011077
vn 0.702576 -0.014246 0.711466
vn 0.702649 0.000000 0.711537
vn 0.011156 -0.012962 0.999854
vn 0.011177 0.000000 0.999938
vn -0.008548 -0.012899 0.999880
vn -0.008565 0.000000 0.999963
vn -0.696616 -0.015405 0.717279
vn -0.696703 0.000000 0.717360
vn -0.999877 -0.012900 0.008966
vn -0.999960 0.000000 0.008984
vn -0.999893 -0.012865 -0.007027
vn -0.999975 0.000000 -0.007043
vn -0.693929 -0.015930 -0.719868
vn -0.694016 0.000000 -0.719959
vn -0.005230 -0.806725 -0.590904
vn 0.005504 -0.805913 -0.592008
vn 0.304513 -0.907187 -0.290316
vn 0.590125 -0.807292 -0.005706
vn 0.590799 -0.806787 0.007191
vn 0.280362 -0.916973 0.283828
vn 0.007245 -0.806827 0.590743
vn -0.005620 -0.806952 0.590590
vn -0.291242 -0.908501 0.299674
vn -0.591817 -0.806051 0.005887
vn -0.591795 -0.806075 -0.004669
vn -0.296666 -0.904027 -0.307773
vn -0.008290 -0.045933 -0.998910
vn 0.008727 -0.045789 -0.998913
vn 0.722066 -0.072202 -0.688047
vn 0.998899 -0.046016 -0.009090
vn 0.998879 -0.045916 0.011500
vn 0.700588 -0.077349 0.709361
vn 0.011597 -0.045925 0.998878
vn -0.008936 -0.045957 0.998903
vn -0.694955 -0.072834 0.715355
vn -0.998906 -0.045809 0.009360
vn -0.998922 -0.045823 -0.007373
vn -0.692268 -0.070742 -0.718165
vn -0.008289 0.046275 -0.998894
vn 0.008726 0.046123 -0.998898
vn 0.722015 0.073173 -0.687997
vn 0.998884 0.046358 -0.009089
vn 0.998864 0.046247 0.011499
vn 0.700518 0.078598 0.709293
vn 0.011596 0.046257 0.998862
vn -0.008935 0.046296 0.998888
vn -0.694904 0.073840 0.715301
vn -0.998891 0.046143 0.009359
vn -0.998907 0.046160 -0.007373
vn -0.692224 0.071634 -0.718119
vn -0.005976 0.342709 -0.939423
vn 0.006350 0.343164 -0.939254
vn 0.652399 0.435204 -0.620462
vn 0.939138 0.343476 -0.006663
vn 0.938681 0.344678 0.008654
vn 0.636479 0.423064 0.644912
vn 0.008758 0.344574 0.938718
vn -0.006516 0.343625 0.939084
vn -0.627268 0.433917 0.646724
vn -0.939180 0.343355 0.006890
vn -0.939386 0.342821 -0.005255
vn -0.623796 0.438439 -0.647032
vn -0.004950 -0.533207 -0.845970
vn 0.005278 -0.533749 -0.845626
vn 0.556278 -0.641068 -0.528759
vn 0.845367 -0.534157 -0.005552
vn 0.844435 -0.535609 0.007276
vn 0.546612 -0.627963 0.553965
vn 0.007373 -0.535475 0.844519
vn -0.005419 -0.534327 0.845260
vn -0.535008 -0.639704 0.551857
vn -0.845477 -0.533981 0.005752
vn -0.845887 -0.533344 -0.004334
vn -0.530692 -0.644496 -0.550445
vn -0.008821 -0.138073 -0.990383
vn 0.009268 -0.137527 -0.990455
vn 0.705694 -0.222054 -0.672821
vn 0.990342 -0.138314 -0.009635
vn 0.990378 -0.137855 0.012118
vn 0.682239 -0.239897 0.690652
vn 0.012209 -0.137893 0.990372
vn -0.009484 -0.138089 0.990374
vn -0.679219 -0.224282 0.698827
vn -0.990441 -0.137584 0.009913
vn -0.990447 -0.137672 -0.007867
vn -0.677481 -0.216837 -0.702853
vn -0.003629 -0.734757 -0.678320
vn 0.003886 -0.735176 -0.677865
vn 0.412797 -0.822080 -0.392151
vn 0.677422 -0.735584 -0.004098
vn 0.676128 -0.736764 0.005426
vn 0.408156 -0.813778 0.413731
vn 0.005506 -0.736662 0.676238
vn -0.003992 -0.735719 0.677275
vn -0.397067 -0.821235 0.409768
vn -0.677647 -0.735375 0.004256
vn -0.678212 -0.734859 -0.003162
vn -0.393048 -0.824211 -0.407663
vn -0.008024 -0.799131 -0.601104
vn 0.008364 -0.799004 -0.601268
vn 0.336646 -0.884829 -0.322099
vn 0.600165 -0.799830 -0.008600
vn 0.599346 -0.800421 0.010517
vn 0.324164 -0.887393 0.327798
vn 0.010552 -0.800379 0.599402
vn -0.008517 -0.799746 0.600278
vn -0.324699 -0.885220 0.333102
vn -0.600988 -0.799210 0.008831
vn -0.601610 -0.798757 -0.007250
vn -0.324447 -0.883955 -0.336687
vn -0.008238 -0.040095 -0.999162
vn 0.008674 -0.039954 -0.999164
vn 0.722489 -0.064027 -0.688412
vn 0.999152 -0.040166 -0.009037
vn 0.999132 -0.040056 0.011439
vn 0.701008 -0.069085 0.709799
vn 0.011536 -0.040067 0.999130
vn -0.008883 -0.040109 0.999156
vn -0.695336 -0.064649 0.715771
vn -0.999158 -0.039971 0.009306
vn -0.999173 -0.039990 -0.007326
vn -0.692648 -0.062593 -0.718555
vn -0.008258 0.041667 -0.999097
vn 0.008695 0.041538 -0.999099
vn 0.722418 0.065403 -0.688356
vn 0.999087 0.041743 -0.009058
vn 0.999066 0.041654 0.011463
vn 0.700965 0.070025 0.709749
vn 0.011560 0.041661 0.999065
vn -0.008904 0.041689 0.999091
vn -0.695282 0.065969 0.715703
vn -0.999093 0.041556 0.009327
vn -0.999109 0.041568 -0.007345
vn -0.692581 0.064093 -0.718487
vn -0.008668 0.814186 -0.580540
vn 0.009021 0.814190 -0.580529
vn 0.326927 0.891641 -0.313200
vn 0.579878 0.814650 -0.009269
vn 0.578739 0.815435 0.011255
vn 0.317120 0.892578 0.320530
vn 0.011300 0.815159 0.579127
vn -0.009197 0.814401 0.580230
vn -0.316140 0.891690 0.323953
vn -0.580525 0.814187 0.009503
vn -0.581313 0.813642 -0.007864
vn -0.314657 0.891235 -0.326636
s 1
g pilier_stuc
usemtl stuc
f 157/1/1 168/2/2 167/3/3 166/4/4 165/5/5 164/6/6 163/7/7 162/8/8 161/9/9 160/10/10 159/11/11 158/12/12
f 1/24/13 13/25/14 14/26/15 2/27/16
f 2/27/16 14/26/15 15/30/17 3/31/18
f 3/32/18 15/33/17 16/34/19 4/35/20
f 4/35/20 16/34/19 17/36/21 5/37/22
f 5/37/22 17/36/21 18/38/23 6/39/24
f 6/40/24 18/41/23 19/42/25 7/43/26
f 7/43/26 19/42/25 20/44/27 8/45/28
f 8/45/28 20/44/27 21/46/29 9/47/30
f 9/48/30 21/49/29 22/50/31 10/51/32
f 10/51/32 22/50/31 23/52/33 11/53/34
f 11/53/34 23/52/33 24/54/35 12/55/36
f 12/28/36 24/29/35 13/25/14 1/24/13
f 13/56/14 25/57/37 26/58/38 14/59/15
f 14/59/15 26/58/38 27/62/39 15/63/17
f 15/63/17 27/62/39 28/66/40 16/67/19
f 16/67/19 28/66/40 29/70/41 17/71/21
f 17/71/21 29/70/41 30/74/42 18/75/23
f 18/75/23 30/74/42 31/80/43 19/81/25
f 19/81/25 31/80/43 32/77/44 20/76/27
f 20/76/27 32/77/44 33/73/45 21/72/29
f 21/72/29 33/73/45 34/69/46 22/68/31
f 22/68/31 34/69/46 35/65/47 23/64/33
f 23/64/33 35/65/47 36/61/48 24/60/35
f 24/60/35 36/61/48 25/57/37 13/56/14
f 25/83/37 37/84/49 38/85/50 26/86/38
f 26/86/38 38/85/50 39/91/51 27/92/39
f 27/103/39 39/104/51 40/105/52 28/106/40
f 28/106/40 40/105/52 41/109/53 29/110/41
f 29/70/41 41/78/53 42/79/54 30/74/42
f 30/74/42 42/79/54 43/82/55 31/80/43
f 31/122/43 43/123/55 44/124/56 32/125/44
f 32/125/44 44/124/56 45/128/57 33/129/45
f 33/141/45 45/142/57 46/143/58 34/144/46
f 34/144/46 46/143/58 47/147/59 35/148/47
f 35/148/47 47/147/59 48/152/60 36/153/48
f 36/87/48 48/88/60 37/84/49 25/83/37
f 37/84/49 49/89/61 50/90/62 38/85/50
f 38/85/50 50/90/62 51/96/63 39/91/51
f 39/104/51 51/107/63 52/108/64 40/105/52
f 40/105/52 52/108/64 53/113/65 41/109/53
f 41/109/53 53/113/65 54/117/66 42/118/54
f 42/130/54 54/131/66 55/126/67 43/123/55
f 43/123/55 55/126/67 56/127/68 44/124/56
f 44/124/56 56/127/68 57/134/69 45/128/57
f 45/142/57 57/145/69 58/146/70 46/143/58
f 46/143/58 58/146/70 59/151/71 47/147/59
f 47/147/59 59/151/71 60/157/72 48/152/60
f 48/88/60 60/93/72 49/89/61 37/84/49
f 49/89/61 61/94/73 62/95/74 50/90/62
f 50/90/62 62/95/74 63/100/75 51/96/63
f 51/107/63 63/111/75 64/112/76 52/108/64
f 52/108/64 64/112/76 65/116/77 53/113/65
f 53/161/65 65/162/77 66/163/78 54/164/66
f 54/164/66 66/163/78 67/165/79 55/166/67
f 55/126/67 67/132/79 68/133/80 56/127/68
f 56/127/68 68/133/80 69/137/81 57/134/69
f 57/145/69 69/149/81 70/150/82 58/146/70
f 58/146/70 70/150/82 71/156/83 59/151/71
f 59/151/71 71/156/83 72/159/84 60/157/72
f 60/93/72 72/97/84 61/94/73 49/89/61
f 61/94/73 73/98/85 74/99/86 62/95/74
f 62/95/74 74/99/86 75/102/87 63/100/75
f 63/111/75 75/114/87 76/115/88 64/112/76
f 64/112/76 76/115/88 77/119/89 65/116/77
f 65/116/77 77/119/89 78/120/90 66/121/78
f 66/138/78 78/139/90 79/135/91 67/132/79
f 67/132/79 79/135/91 80/136/92 68/133/80
f 68/133/80 80/136/92 81/140/93 69/137/81
f 69/149/81 81/154/93 82/155/94 70/150/82
f 70/150/82 82/155/94 83/158/95 71/156/83
f 71/156/83 83/158/95 84/160/96 72/159/84
f 72/97/84 84/101/96 73/98/85 61/94/73
f 73/167/85 85/168/97 86/169/98 74/170/86
f 74/170/86 86/169/98 87/173/99 75/174/87
f 75/174/87 87/173/99 88/177/100 76/178/88
f 76/178/88 88/177/100 89/181/101 77/182/89
f 77/182/89 89/181/101 90/185/102 78/186/90
f 78/186/90 90/185/102 91/189/103 79/190/91
f 79/190/91 91/189/103 92/188/104 80/187/92
f 80/187/92 92/188/104 93/184/105 81/183/93
f 81/183/93 93/184/105 94/180/106 82/179/94
f 82/179/94 94/180/106 95/176/107 83/175/95
f 83/175/95 95/176/107 96/172/108 84/171/96
f 84/171/96 96/172/108 85/168/97 73/167/85
f 85/191/97 97/192/109 98/193/110 86/194/98
f 86/194/98 98/193/110 99/197/111 87/198/99
f 87/199/99 99/200/111 100/201/112 88/202/100
f 88/202/100 100/201/112 101/203/113 89/204/101
f 89/204/101 101/203/113 102/205/114 90/206/102
f 90/207/102 102/208/114 103/209/115 91/210/103
f 91/210/103 103/209/115 104/211/116 92/212/104
f 92/212/104 104/211/116 105/213/117 93/214/105
f 93/215/105 105/216/117 106/217/118 94/218/106
f 94/218/106 106/217/118 107/219/119 95/220/107
f 95/220/107 107/219/119 108/221/120 96/222/108
f 96/195/108 108/196/120 97/192/109 85/191/97
f 97/223/109 109/224/121 110/225/122 98/226/110
f 98/226/110 110/225/122 111/229/123 99/230/111
f 99/230/111 111/229/123 112/233/124 100/234/112
f 100/234/112 112/233/124 113/237/125 101/238/113
f 101/238/113 113/237/125 114/241/126 102/242/114
f 102/242/114 114/241/126 115/249/127 103/250/115
f 103/250/115 115/249/127 116/244/128 104/243/116
f 104/243/116 116/244/128 117/240/129 105/239/117
f 105/239/117 117/240/129 118/236/130 106/235/118
f 106/235/118 118/236/130 119/232/131 107/231/119
f 107/231/119 119/232/131 120/228/132 108/227/120
f 108/227/120 120/228/132 109/224/121 97/223/109
f 109/252/121 121/253/133 122/254/134 110/255/122
f 110/255/122 122/254/134 123/260/135 111/261/123
f 111/268/123 123/269/135 124/270/136 112/271/124
f 112/271/124 124/270/136 125/274/137 113/275/125
f 113/237/125 125/247/137 126/248/138 114/241/126
f 114/241/126 126/248/138 127/251/139 115/249/127
f 115/283/127 127/284/139 128/285/140 116/286/128
f 116/286/128 128/285/140 129/289/141 117/290/129
f 117/240/129 129/245/141 130/246/142 118/236/130
f 118/298/130 130/299/142 131/300/143 119/301/131
f 119/301/131 131/300/143 132/304/144 120/305/132
f 120/256/132 132/257/144 121/253/133 109/252/121
f 121/253/133 133/258/145 134/259/146 122/254/134
f 122/254/134 134/259/146 135/265/147 123/260/135
f 123/269/135 135/272/147 136/273/148 124/270/136
f 124/270/136 136/273/148 137/278/149 125/274/137
f 125/274/137 137/278/149 138/280/150 126/281/138
f 126/291/138 138/292/150 139/287/151 127/284/139
f 127/284/139 139/287/151 140/288/152 128/285/140
f 128/285/140 140/288/152 141/295/153 129/289/141
f 129/306/141 141/307/153 142/302/154 130/299/142
f 130/299/142 142/302/154 143/303/155 131/300/143
f 131/300/143 143/303/155 144/310/156 132/304/144
f 132/257/144 144/262/156 133/258/145 121/253/133
f 133/258/145 145/263/157 146/264/158 134/259/146
f 134/259/146 146/264/158 147/267/159 135/265/147
f 135/272/147 147/276/159 148/277/160 136/273/148
f 136/273/148 148/277/160 149/279/161 137/278/149
f 137/278/149 149/279/161 150/282/162 138/280/150
f 138/292/150 150/296/162 151/293/163 139/287/151
f 139/287/151 151/293/163 152/294/164 140/288/152
f 140/288/152 152/294/164 153/297/165 141/295/153
f 141/307/153 153/311/165 154/308/166 142/302/154
f 142/302/154 154/308/166 155/309/167 143/303/155
f 143/303/155 155/309/167 156/312/168 144/310/156
f 144/262/156 156/266/168 145/263/157 133/258/145
f 145/14/157 157/1/1 158/12/12 146/23/158
f 146/23/158 158/12/12 159/11/11 147/21/159
f 147/21/159 159/11/11 160/10/10 148/22/160
f 148/313/160 160/314/10 161/315/9 149/316/161
f 149/19/161 161/9/9 162/8/8 150/20/162
f 150/317/162 162/318/8 163/319/7 151/320/163
f 151/18/163 163/7/7 164/6/6 152/16/164
f 152/16/164 164/6/6 165/5/5 153/17/165
f 153/321/165 165/322/5 166/323/4 154/324/166
f 154/324/166 166/323/4 167/325/3 155/326/167
f 155/15/167 167/3/3 168/2/2 156/13/168
f 156/13/168 168/2/2 157/1/1 145/14/157
